/* XPM */
static char *ack__[] = {
/* columns rows colors chars-per-pixel */
"16 16 2 1",
"  c #008000",
". c None",
/* pixels */
"................",
"................",
"................",
"............ ...",
"...........  ...",
"..........  ....",
"..........  ....",
".........  .....",
"........  ......",
"..   ..   ......",
"...   .  .......",
"....     .......",
".....   ........",
"......  ........",
"................",
"................"
};
