/* XPM */
static char *cluster[] = {
/* columns rows colors chars-per-pixel */
"16 16 6 1",
"  c black",
". c red",
"X c #808080",
"o c #C0C0C0",
"O c gray100",
"+ c None",
/* pixels */
"+++++++++XXXXXX+",
"+XXXXXX+XoooooX ",
"XoooooX XOOOOXX ",
"XOOOOXX XooooX  ",
"XooooX  XXXXX X ",
"XXXXXXXXXXOOOXX ",
"XOOOXooooX ooXX ",
"XoooXOOOXX ooXX ",
"XoooXoooX  ooXX ",
"XoooXXXX X .oXX ",
"Xoo.XOOOXX ooX +",
"XoooXoooXX    ++",
"+   XoooXX +++++",
"++++XoooXX +++++",
"++++XoooX ++++++",
"+++++    +++++++"
};
