/* XPM */
static char *container[] = {
/* columns rows colors chars-per-pixel */
"16 16 10 1",
"  c black",
". c green",
"X c yellow",
"o c navy",
"O c blue",
"+ c cyan",
"@ c #808080",
"# c #C0C0C0",
"$ c gray100",
"% c None",
/* pixels */
"%%@@@@@%%%%%%%%%",
"%@#X#X#@%%%%%%%%",
"@#X#X#X#@@@@@@%%",
"@$$$$$$$$$$$$@ %",
"@$X#X#X#X#X#X@ %",
"@$#X#X       @ %",
"@$X#X $$$$$#@  %",
"@$#X# $oooo#@  %",
"@$X#X $o+OO#@  %",
"@$#X# $oOOO#@  %",
"@$X#X $#####@ # ",
"@@@@@        #@ ",
"%   @$$$$$$$$@@ ",
"%%%%@$#.#####@@ ",
"%%%%@$@@@@@@@@ %",
"%%%%%         %%"
};
