/* XPM */
static char *disabled[] = {
/* columns rows colors chars-per-pixel */
"16 16 61 1",
"  c #323232",
". c #414141",
"X c #464646",
"o c gray29",
"O c #4B4B4B",
"+ c #4C4C4C",
"@ c gray30",
"# c #515151",
"$ c gray32",
"% c #585858",
"& c #646464",
"* c #656565",
"= c #676767",
"- c #60636D",
"; c #62676F",
": c gray42",
"> c #6F6F6F",
", c #717171",
"< c gray45",
"1 c gray47",
"2 c #7B7B7B",
"3 c #7C7C7C",
"4 c #3259CD",
"5 c #3259CF",
"6 c #3A67D1",
"7 c #406ED4",
"8 c #4270D5",
"9 c #497BD8",
"0 c #4B86DC",
"q c #4C86DD",
"w c #5080D9",
"e c #5083DA",
"r c #5586DA",
"t c #508ADD",
"y c #518ADE",
"u c #5F91DE",
"i c #6192DE",
"p c #5591E0",
"a c #5494E1",
"s c #6CA2E5",
"d c #74A9E6",
"f c #79AAE6",
"g c #7BABE7",
"h c #79ACE7",
"j c #818181",
"k c gray51",
"l c gray52",
"z c #8D8D8D",
"x c gray57",
"c c #979797",
"v c gray62",
"b c gray66",
"n c #AAAAAA",
"m c #AEAEAE",
"M c #C1C1C1",
"N c gray77",
"B c #D5D5D5",
"V c gray85",
"C c #DDDDDD",
"Z c gray91",
"A c None",
/* pixels */
"AAAAAAAAAAAAAAAA",
"AAAAAAAAAAAAAAAA",
"AAAAaAAhAAgqAAAA",
"AAAAAdA0AftAAAAA",
"AAAAAAsAypAAAAAA",
"AAAlv3;AA3vlAAAA",
"A+xZCMjA2VCNx+AA",
"A<B%O*AA>*O%b<AA",
" kA*AAAAAAA*Ak A",
"A=A$.X#AAX.$A=AA",
"A@znmc,A1cmnz@AA",
"AAo&::AA-::&oAAA",
"AAAAA97AeAAAAAAA",
"AAAA8iA5AwAAAAAA",
"AAA6uAArAA4AAAAA",
"AAAAAAAAAAAAAAAA"
};
