/* XPM */
static char *epp__[] = {
/* columns rows colors chars-per-pixel */
"16 16 7 1",
"  c #060606",
". c yellow",
"X c navy",
"o c magenta",
"O c gray52",
"+ c #C5C5C5",
"@ c gray100",
/* pixels */
"OOOOOOOOOOOOOOO ",
"OXXXXXXXXXXXXXX ",
"OXXXXXXXXXXXX@X ",
"O               ",
"O@@@@@@@@@@@@@@ ",
"O@@+++++++++O@@ ",
"O@@++.+OOOO+O@@ ",
"O@@++++++  +O@@ ",
"O@@++o+OO @ O@@ ",
"O@@++++++ @@ @@ ",
"O@@++o+OO @@ @@ ",
"O@@+++++++  O@@ ",
"O@@OOOOOOOOO @@ ",
"O@@@@@@@@@@@@@@ ",
"O@@@@@@@@@@@@@@ ",
"                "
};
