/* XPM */
static char *interface[] = {
/* columns rows colors chars-per-pixel */
"16 16 133 2",
"   c #106C0B82106C",
".  c #1EEE3B0A1EEE",
"X  c #1F5F3C051F5F",
"o  c #31FE31FE0000",
"O  c #273023652D07",
"+  c #291E3E79291E",
"@  c #3B6338443B63",
"#  c #029B47F902BC",
"$  c #094247CB0636",
"%  c #11DD436B0C2F",
"&  c #114C4B5A0C2F",
"*  c #09E557F3066B",
"=  c #14A255F314A1",
"-  c #1624572F1624",
";  c #1E30551C1E30",
":  c #1E48567C1E48",
">  c #1F4056571F40",
",  c #1F135A491F13",
"<  c #035760C40137",
"1  c #0F4D697A0F6C",
"2  c #000078C80000",
"3  c #1E4867AA1E48",
"4  c #1F0767E91F07",
"5  c #1D246D8D1D24",
"6  c #1E4F6D8E1E4F",
"7  c #1F646FA71F64",
"8  c #11627DA01162",
"9  c #37667A471DF4",
"0  c #29154D3B2980",
"q  c #230B576C230B",
"w  c #264C5656264C",
"e  c #2E9D5A462E9D",
"r  c #368D4344368D",
"t  c #379E43FF379E",
"y  c #390E4573390E",
"u  c #368053B6379E",
"i  c #37E252EE37E2",
"p  c #37E7550F390E",
"a  c #3C6255C03C62",
"s  c #27CB6AB52809",
"d  c #2AB76A452AB7",
"f  c #2AB77BE62AB7",
"g  c #2A927C0E2AEC",
"h  c #31C0621131C0",
"j  c #3DA562B63DA5",
"k  c #3C5064333C50",
"l  c #388068AE3880",
"z  c #390E68DE390E",
"x  c #384A73BD390E",
"c  c #38E0734638E0",
"v  c #3C9675A53CF2",
"b  c #3CB07E133D0E",
"n  c #42F670B11DFF",
"m  c #441570321DF4",
"M  c #40C2742A1C98",
"N  c #6BE06BE00000",
"B  c #6C696C690000",
"V  c #6D496D490000",
"C  c #6299629908FE",
"Z  c #656D640C19EF",
"A  c #42E0488F42E0",
"S  c #49F7473649F7",
"D  c #52E4513152E4",
"F  c #5537527A5537",
"G  c #5AA458985AA4",
"H  c #41917A614191",
"J  c #470E7EE5470E",
"K  c #508B7D67508B",
"L  c #6A7D68785B6D",
"P  c #75F770C875F7",
"I  c #1938875B1935",
"U  c #1DF6839E1DF6",
"Y  c #1DF687A41DF6",
"T  c #1E0B8F4B1E0B",
"R  c #2741886D2741",
"E  c #2D5C95942D5C",
"W  c #34EE8FE834EE",
"Q  c #3E579BDF3E57",
"!  c #2D47A1E82D47",
"~  c #3B2BA19D3B2B",
"^  c #50E5853B4AE0",
"/  c #480B98DC480B",
"(  c #488E9A52488E",
")  c #4AAA9B504AAA",
"_  c #4B2D9BA34B2C",
"`  c #48929FF44892",
"'  c #5D239F984BFC",
"]  c #54BC8B6154BC",
"[  c #5ED485125ED4",
"{  c #5EFD88C15F17",
"}  c #5DBC8E455ED4",
"|  c #55699EBA5569",
" . c #56629D215662",
".. c #57109ED85710",
"X. c #5BE3923C5BE3",
"o. c #6619829E4A5C",
"O. c #72D78EBC4A69",
"+. c #72FD8F5C4AEC",
"@. c #6CBA95664AEA",
"#. c #640082116400",
"$. c #65B6856665B6",
"%. c #74F8817B74F8",
"&. c #75F89D92749B",
"*. c #6279A4936279",
"=. c #6E2DA7626E2D",
"-. c #6FC1A6F56FC1",
";. c #7004A7517004",
":. c #7072A9487072",
">. c #7C16B51E7C16",
",. c #7D39B5D57D39",
"<. c #7D0DB6517D0D",
"1. c #7D13CDE67D13",
"2. c #B8CEB6542708",
"3. c #C5CFC4241880",
"4. c #C678C52E17A5",
"5. c #C877C7251869",
"6. c #8951AF5A7CD5",
"7. c #84568C288456",
"8. c #8C749D0A8C74",
"9. c #8D7E9E2C8D7E",
"0. c #99BD95628C5A",
"q. c #9A9296058C74",
"w. c #9A23963F8C74",
"e. c #95E098188C74",
"r. c #9582BE2795E2",
"t. c #95E2BE4895E2",
"y. c #974BBF51974B",
"u. c #A6B8A778A219",
"i. c #A522A212A522",
"p. c #9645C3429645",
"a. c #95E9D08895E9",
"s. c #9645D66B9645",
"d. c None",
/* pixels */
"d.d.d.d.d.d.d.d.d.d.d.d.d.d.d.d.",
"d.d.d.d.d.d.d.d.d.d.d.d.d.d.d.d.",
"d.d.d.d.d.d.d.d.d.d.d.d.d.d.d.d.",
"d.d.d.d.d.d.d.d.d.d.d.d.d.i.d.d.",
"u.6.r.<.,.t.,.p.s.1.a.>.,.y.j d.",
"0.M } d f [ 6 ( ` T X.H 5 =.e @ ",
"w.n u . , t > |  .R %.P w *.h G ",
"e.9 x , 7 z 3 -./ 8 i r ; :.k D ",
"q.m p X , y : ;.Q ! E W ~ ) - F ",
"8.Y c , 7 l 4 ..I b s g v 1 = S ",
"9.U a + , A q _ 2 & $ * % < #   ",
"7.] K $.J #.{ &.' O.@.+.o.^ 0 d.",
"d.d.d.d.d.d.d.L 2.4.3.5.Z O d.d.",
"d.d.d.d.d.d.d.d.C B N V o d.d.d.",
"d.d.d.d.d.d.d.d.d.d.d.d.d.d.d.d.",
"d.d.d.d.d.d.d.d.d.d.d.d.d.d.d.d."
};
