/* XPM */
static char *major__[] = {
/* columns rows colors chars-per-pixel */
"16 16 3 1",
"  c black",
". c #FF8000",
"X c None",
/* pixels */
"XXXXXXXXXXXXXXXX",
"XXXXXXX  XXXXXXX",
"XXXXXX .. XXXXXX",
"XXXXXX .. XXXXXX",
"XXXXX .... XXXXX",
"XXXXX .  . XXXXX",
"XXXX ..  .. XXXX",
"XXXX ..  .. XXXX",
"XXX ...  ... XXX",
"XXX ...  ... XXX",
"XX .......... XX",
"XX ....  .... XX",
"X .....  ..... X",
"X ............ X",
"XX            XX",
"XXXXXXXXXXXXXXXX"
};
