/* XPM */
static char *network_service[] = {
/* columns rows colors chars-per-pixel */
"16 16 146 2",
"   c #00780C",
".  c #016E13",
"X  c #007114",
"o  c #057719",
"O  c #066526",
"+  c #026632",
"@  c #1D663A",
"#  c #007039",
"$  c #09585B",
"%  c #22585E",
"&  c #246256",
"*  c #034D71",
"=  c #2F556C",
"-  c #2D4B70",
";  c #334670",
":  c #324E73",
">  c #384D72",
",  c #3E557B",
"<  c #016C78",
"1  c #3C627C",
"2  c #58637F",
"3  c #507B7D",
"4  c #39B61E",
"5  c #018222",
"6  c #37B03C",
"7  c #47BA3F",
"8  c #4EC033",
"9  c #66CC37",
"0  c #018A43",
"q  c #109851",
"w  c #008169",
"e  c #00856A",
"r  c #14917D",
"t  c #14A068",
"y  c #47BD5D",
"u  c #75D35F",
"i  c #71D169",
"p  c #7AD27A",
"a  c #033DA3",
"s  c #023EA7",
"d  c #0C3FA5",
"f  c #0A489A",
"g  c #2E498F",
"h  c #304984",
"j  c #314D8C",
"k  c #325194",
"l  c #335797",
"z  c #0344A3",
"x  c #0046AD",
"c  c #0059AC",
"v  c #004ABA",
"b  c #0054BA",
"n  c #1958B2",
"m  c #264DAE",
"M  c #2558A5",
"N  c #3158A0",
"B  c #2351B0",
"V  c #2B50B3",
"C  c #3858B4",
"Z  c #3254BA",
"A  c #0060B4",
"S  c #0378B9",
"D  c #41649C",
"F  c #717F97",
"G  c #5174A5",
"H  c #627CA6",
"J  c #727DBD",
"K  c #0160C6",
"L  c #0869CD",
"P  c #1063C0",
"I  c #027EC7",
"U  c #0171CC",
"Y  c #0074CC",
"T  c #6177EC",
"R  c #697FEF",
"E  c #018384",
"W  c #2D8782",
"Q  c #0180A3",
"!  c #018CAD",
"~  c #0E97BE",
"^  c #13A0AF",
"/  c #30A1B3",
"(  c #7C889A",
")  c #5D87B6",
"_  c #5784BA",
"`  c #7686A5",
"'  c #7F85A6",
"]  c #7C83AC",
"[  c #54C389",
"{  c #0896C9",
"}  c #1981DA",
"|  c #3C82CB",
" . c #0088E7",
".. c #0897F7",
"X. c #15A0FC",
"o. c #3EB8E9",
"O. c #6F96CE",
"+. c #5CA5DA",
"@. c #6B80E0",
"#. c #6E85F3",
"$. c #7288F4",
"%. c #7A98FF",
"&. c #7AC5CE",
"*. c #4DC0F1",
"=. c #85889C",
"-. c #8086A3",
";. c #97A2B0",
":. c #8ADE8A",
">. c #9BE591",
",. c #8BDEA4",
"<. c #8DDDB4",
"1. c #96E3A0",
"2. c #A5EBB8",
"3. c #889CC6",
"4. c #ADB9C4",
"5. c #91ADEA",
"6. c #9CB6EE",
"7. c #87ACF8",
"8. c #8EB2FF",
"9. c #9DBBFD",
"0. c #9FBDFF",
"q. c #88C4C9",
"w. c #ACD4D2",
"e. c #A9DFDF",
"r. c #98E4D8",
"t. c #B7F3D3",
"y. c #A8C4FF",
"u. c #B0C9FF",
"i. c #B9D0FF",
"p. c #C6CFD8",
"a. c #C7D2D0",
"s. c #C3D0D4",
"d. c #C8D5DB",
"f. c #C2D5FF",
"g. c #CBDCFF",
"h. c #C5EDEA",
"j. c #D4E2FF",
"k. c #E8EAEC",
"l. c #EAEFF6",
"z. c #ECF5FF",
"x. c #F4F9FA",
"c. c #F3F8FF",
"v. c #F9FEFF",
"b. c #FEFEFE",
"n. c gray100",
"m. c None",
/* pixels */
"m.m.%.T R #.#.R T R #.#.R T %.m.",
"m.m.R n.n.n.n.n.n.n.n.n.n.n.R m.",
"m.m.$.n.n.n.n.n.n.n.n.n.n.n.$.m.",
"m.m.@.a.h.e.w.s.k.b.n.n.n.n.$.m.",
"m.m.q.<.,.i 7 / +.d.x.v.v.v.$.m.",
"m.p u 2.t.1.y ~ I W 4.l.c.c.$.m.",
"&.6 9 :.>.r.o.{ e o 3 p.z.z.$.m.",
"} r 4 8 [ *.X.! 5 . & ;.j.j.J m.",
"L S q t ^ .. .w   O % ( g.g.J m.",
"P K U Q 0 E Y < + @ = F f.f.J m.",
"| x b A # X c v f 1 > ` i.i.J m.",
"m.n a z $ * s d m j : 3.u.u.] m.",
"m.m.M B N V Z C g - H 6.y.y.' m.",
"m.m.2 D l k h ; , G 5.9.0.0.' m.",
"m.m.] _ ) ) ) ) O.7.8.8.8.8.' m.",
"m.m.-.' ' ' ' ' ' ' ' ' ' ' =.m."
};
