/* XPM */
static char *outstanding[] = {
/* columns rows colors chars-per-pixel */
"16 16 37 1",
"  c #45392D",
". c #494440",
"X c #476078",
"o c #C54B00",
"O c #D84B00",
"+ c #DD6F00",
"@ c #E67400",
"# c #EA7B01",
"$ c #D58007",
"% c #FF8B04",
"& c #FF9415",
"* c #FF9416",
"= c #CF8937",
"- c #FFB449",
"; c #FFB84E",
": c #FEE167",
"> c #FBED72",
", c #FDED7B",
"< c #FDF677",
"1 c #627288",
"2 c #B2B2B2",
"3 c #F9E48F",
"4 c #FDF88E",
"5 c #FCF794",
"6 c #FFF995",
"7 c #FCE9A9",
"8 c #FEF3BE",
"9 c #FFFFBD",
"0 c #AEC8E2",
"q c #BCD6F2",
"w c #FEFFD1",
"e c #FEFFE6",
"r c #FEFFE9",
"t c #FEFEF3",
"y c #FEFFF7",
"u c #FEFEFE",
"i c None",
/* pixels */
"iiiiiiiiiiiiiiii",
"iiiiiiiiiiiiiiii",
"iiiiiiiiiiiiiiii",
"iiiiii=$$=iiiiii",
"iiiii*6996*iiiii",
"iiii*7ryyr7*iiii",
"iiii*8tuut8*iiii",
"iiii*3weew3*iiii",
"iiii2*,54:*2iiii",
"iiiii2&<>*2iiiii",
"iiiiii#;-%iiiiii",
"iiiiiio+@Oiiiiii",
"iiiiii1q0Xiiiiii",
"iiiiiii .iiiiiii",
"iiiiiiiiiiiiiiii",
"iiiiiiiiiiiiiiii"
};
