/* XPM */
static char *network[] = {
/* columns rows colors chars-per-pixel */
"16 16 28 1",
"  c #3E3E3E",
". c gray29",
"X c #626262",
"o c gray43",
"O c gray48",
"+ c #629600",
"@ c #808000",
"# c #969600",
"$ c navy",
"% c #000096",
"& c #003196",
"* c #0000B9",
"= c #003DB9",
"- c #006296",
"; c #007AB9",
": c #0000DC",
"> c blue",
", c #0092DC",
"< c #25AAFF",
"1 c #808080",
"2 c #868686",
"3 c #929292",
"4 c gray62",
"5 c #A0A0A4",
"6 c #AAAAAA",
"7 c #B6B6B6",
"8 c #C0C0C0",
"9 c None",
/* pixels */
"999911+<<<O99999",
"999<<+<+++++9999",
"99<<<+++++++,999",
"9<<<++++++++,-99",
"1<<<+;;<;,,++=.9",
"1<<+<<,,,@,++==9",
"<<<<+###-#@=;=&9",
"<<<+@####-#;=&=9",
"<<,@######=====9",
"o,,---#888888111",
"X@,;;;#8>>>:6119",
"9;;;;;#8>>>*4119",
"99;;==#8**%$2879",
"999===&999999759",
"9999 &&999999639",
"9999999999999999"
};
