/* XPM */
static char *subnet[] = {
/* columns rows colors chars-per-pixel */
"16 16 48 1",
"  c gray15",
". c #4C4C4F",
"X c #535359",
"o c #5C5C5D",
"O c #626277",
"+ c gray44",
"@ c #7C7C7C",
"# c #B4752E",
"$ c #E8B145",
"% c #595983",
"& c #6E6E82",
"* c #666796",
"= c #7479B8",
"- c #6781D3",
"; c #749BDD",
": c #45A1EE",
"> c #4CBEFF",
", c #6DB0E7",
"< c #5DC8FF",
"1 c #808084",
"2 c gray56",
"3 c gray58",
"4 c #8787A9",
"5 c #9899BA",
"6 c #A5A5B6",
"7 c #B8BBBC",
"8 c #9898C4",
"9 c #9494CD",
"0 c #83A2D6",
"q c #99A3D2",
"w c #92BDD9",
"e c #A1A3C1",
"r c #A4A4CE",
"t c #B8BCC9",
"y c #A9ABD3",
"u c #A4BDD8",
"i c #B6B7D2",
"p c #BDBDD0",
"a c #82DBFF",
"s c #88DDFF",
"d c #A0DFF3",
"f c #93E2FF",
"g c #A4ECFF",
"h c #ABEFFF",
"j c #C2C2CD",
"k c #E1E1EB",
"l c #ECECEC",
"z c None",
/* pixels */
"zzzzzrrrrr0zzzzz",
"zzzzzrudhg,3zzzz",
"zzzzzruafs;+zzzz",
"zzzzzrw><<-+zzzz",
"zzzzzi;:,;%@zzzz",
"zzzzzz+7 .++zzzz",
"rrrrr0zt rrrrr0z",
"rudhg,zj rudhg,3",
"ruafs;2$$1uafs;+",
"rw><<- ## w><<-+",
"i;:,;*oooo;:,;%@",
"z1y9=Xzzzzqy9=oz",
"1lkp84zzz1lkp84z",
"1iee5&1zz1iee5&1",
"z166O+1zzz166O+1",
"zz1111zzzzz1111z"
};
