/* XPM */
static char *template_group[] = {
/* columns rows colors chars-per-pixel */
"16 16 115 2",
"   c #2C322C322C32",
".  c #3DA33DA33DA3",
"X  c #3DC53DC53DC5",
"o  c #4FA64FA64FA6",
"O  c #4FF04FF04FF0",
"+  c #50F150F150F1",
"@  c #549954995499",
"#  c #5BC65BC65BC6",
"$  c #60AD60AD60AD",
"%  c #703870387038",
"&  c #71C271C271C2",
"*  c #73DF73DF73DF",
"=  c #743674367436",
"-  c #758175817581",
";  c #7DA77DA77DA7",
":  c #7E867E867E86",
">  c #7F217F217F21",
",  c #B8536EF06EF0",
"<  c #8BFB8BFB8BFB",
"1  c #8F988F988F98",
"2  c #925692569256",
"3  c #9B9D9B9D9B9D",
"4  c #9E129FE19FE1",
"5  c #9EB09EB09EB0",
"6  c #AC7189CF89CF",
"7  c #BCD988AE88AE",
"8  c #AC9CAC9CAC9C",
"9  c #AD93AD91AD91",
"0  c #B1D3B1D3B1D3",
"q  c #B4BDB4BDB4BD",
"w  c #BE37B640B640",
"e  c #B8ADB8ADB8AD",
"r  c #BB48BB48BB48",
"t  c #BDBABDBABDBA",
"y  c #BE51BE51BE51",
"u  c #BF5DBFAFBFAF",
"i  c #C96C94999499",
"p  c #CFE39CAC9CAC",
"a  c #CEA2A1D1A1D1",
"s  c #C609BDB0BDB0",
"d  c #DCC1B8FFB8FF",
"f  c #DF7EBDEFBDEF",
"g  c #C07AC07AC07A",
"h  c #C203C203C203",
"j  c #C38FC38FC38F",
"k  c #C494C420C420",
"l  c #C5DAC5DAC5DA",
"z  c #C7C9C7C5C7C5",
"x  c #CA65C4BFC4BF",
"c  c #C89AC89AC89A",
"v  c #C8E3C9BEC9BE",
"b  c #C9B7C9B5C9B5",
"n  c #CA22CA51CA51",
"m  c #C9F6CBEACBEA",
"M  c #CA93CAAECAAE",
"N  c #CB80CB80CB80",
"B  c #CA9DCC5ACC5A",
"V  c #CC10CCD1CCD1",
"C  c #CC8FCC8FCC8F",
"Z  c #CD7ACD7ACD7A",
"A  c #D000D1E8D1E8",
"S  c #D096D132D132",
"D  c #D0A0D179D179",
"F  c #D1C4D21ED21E",
"G  c #D449D449D449",
"H  c #D4E1D540D540",
"J  c #D7D9D7D9D7D9",
"K  c #D8FCD8FCD8FC",
"L  c #DBF4DBF4DBF4",
"P  c #DDE1DDE1DDE1",
"I  c #DE01DE5FDE5F",
"U  c #DE7ADE7ADE7A",
"Y  c #DFF4DFF4DFF4",
"T  c #E32CD483D483",
"R  c #E940D0A5D0A5",
"E  c #EA08D0B9D0B9",
"W  c #E69CDD6BDD6B",
"Q  c #E2F7E2F7E2F7",
"!  c #E3B8E3B8E3B8",
"~  c #E4F5E4F5E4F5",
"^  c #E74EE74EE74E",
"/  c #E7FEE7FEE7FE",
"(  c #E919E18AE18A",
")  c #E990E22FE22F",
"_  c #EB20E3BEE3BE",
"`  c #E9C0E4E3E4E3",
"'  c #EB78E5FFE5FF",
"]  c #E8D7E8D7E8D7",
"[  c #E9EEE9EEE9EE",
"{  c #EAB5EAB5EAB5",
"}  c #EB89EB89EB89",
"|  c #ED1CED1CED1C",
" . c #EE0BEE0AEE0A",
".. c #EF86EE05EE05",
"X. c #EE2EEE75EE75",
"o. c #EF34EFAFEFAF",
"O. c #F02BF02BF02B",
"+. c #F4F0EF2BEF2B",
"@. c #EF55F0E8F0E8",
"#. c #F0F9F0F9F0F9",
"$. c #F1F2F1F2F1F2",
"%. c #F2CBF2CBF2CB",
"&. c #F40FF40EF40E",
"*. c #F5A9F53AF53A",
"=. c #F6D8F6D8F6D8",
"-. c #F9E8F9E5F9E5",
";. c #F9E9FB14FB14",
":. c #FB16FB16FB16",
">. c #FBBEFBC3FBC3",
",. c #FCF6FCF6FCF6",
"<. c #FDE7FDE7FDE7",
"1. c #FE7AFEA3FEA3",
"2. c #FEDBFEDBFEDB",
"3. c #FFEFFFF7FFF7",
"4. c None",
/* pixels */
"4.4.4.u B n b b N 5 4.4.4.4.4.4.",
"4.4.4.( a x D S F 9 & < 4.4.4.4.",
"4.4.4 T 7 k ) W ` X.&.~ * 4.4.4.",
"u _ w ..' A p , i *.>.{ q ; 4.4.",
"m p 6 @.I V R d f +.H j e l # 4.",
"v E s o.! C 3.;.;.1.-.%.q 3 1 X ",
"z 3.M  .I N 2.{ { ,.3.3.3.3.:.- ",
"c =.h X.U N 2.{ / / ^ ^ { <.:.* ",
"c =.h | J M 3.$.O.#.=.&.$.2.:.* ",
"c :.l | J M <.! Y ! ,.O.Q ,.:.* ",
"c %.t  .Z z 1.! Y ! ,.O.! ,.:.* ",
"c %.y #.[ C ,.L K ] <.| U >.:.* ",
"c $.8 r t c ,.G G :.3.{ P :.:.* ",
"c &.0 2 1 g <.,.,.>.>.>.>.>.=.= ",
"l ,.<.3.} ; : > > > = & = * = . ",
"$ = * = % @ o O O +   4.4.4.4.4."
};
