/* XPM */
static char *template[] = {
/* columns rows colors chars-per-pixel */
"16 16 9 1",
"  c black",
". c #808000",
"X c yellow",
"o c #008080",
"O c cyan",
"+ c #808080",
"@ c #C0C0C0",
"# c gray100",
"$ c None",
/* pixels */
"$$$$$$$$$$$$$$$$",
"$             O ",
"$ ###########Oo@",
"$ # ########Oo@$",
"$ #  ######Oo@$$",
"$ # @ ####Oo@ $$",
"$ # @@ ##@o@# $$",
"$ # @ @ # @## $$",
"$ # @# @ #### $$",
"$ # @## @ ### $$",
"$ # @@@@@@ ##+ $",
"$.X.X.X.X.X.X+  ",
"$............+  ",
"$ @@@@@@@@@@@+ $",
"$             $$",
"$$$$$$$$$$$$$$$$"
};
