/* XPM */
static char *terminated[] = {
/* columns rows colors chars-per-pixel */
"16 16 25 1",
"  c #7F0000",
". c #870000",
"X c #880000",
"o c #900000",
"O c #910000",
"+ c #980000",
"@ c #9A0000",
"# c #A10000",
"$ c #A40000",
"% c #A90000",
"& c #AD0000",
"* c #B20000",
"= c #B60000",
"- c #BA0000",
"; c #BF0000",
": c #C30000",
"> c #C90000",
", c #CB0000",
"< c #D20000",
"1 c #D40000",
"2 c #DB0000",
"3 c #DC0000",
"4 c #E50000",
"5 c #808080",
"z c None",
/* pixels */
"zzzzzzzzzzzzzzzz",
"z54zzzzzzzzzzzzz",
"z 43zzzzzzzz445z",
"z  21zzzzzz4* 5z",
"zz  <,zzzz4*  zz",
"zzz  >:zz4*  zzz",
"zzzz* ;-4*  zzzz",
"zzzzz* =*  zzzzz",
"zzzzzz4*&%zzzzzz",
"zzzzz4*  $#zzzzz",
"zzzz4* zz @+zzzz",
"zzz4* zzzz Oozzz",
"zzz  zzzzzz X.zz",
"zzzzzzzzzzzz5  z",
"zzzzzzzzzzzzz555",
"zzzzzzzzzzzzzzzz"
};
