/* XPM */
static char *vpnc[] = {
/* columns rows colors chars-per-pixel */
"16 16 168 2",
"   c #137913790000",
".  c #0BCE3EDB0000",
"X  c #088D38F00C56",
"o  c #16813F8B16B2",
"O  c #265626560384",
"+  c #2A232A230000",
"@  c #349234920000",
"#  c #34C834C80000",
"$  c #3E733D940C26",
"%  c #2EC42BBC2EC4",
"&  c #2F5D38782F84",
"*  c #0EAB49940EA6",
"=  c #0C124E530C0F",
"-  c #0D284D2B0D91",
";  c #0424548E0455",
":  c #0674573B0706",
">  c #0E995EDF0E99",
",  c #16714BE418E3",
"<  c #19C9499819C9",
"1  c #151B55F11635",
"2  c #16FD57ED16FD",
"3  c #170F5AFC1707",
"4  c #181D5474193B",
"5  c #1967544619C9",
"6  c #1EBD55B81EBD",
"7  c #1E2E55F61E2E",
"8  c #031F78EA031B",
"9  c #1A8663EA1A86",
"0  c #1C4860561C48",
"q  c #1DFE69691DFE",
"w  c #1B6B711F1C7C",
"e  c #1F1E7E1E18A9",
"r  c #2A0662130E22",
"t  c #26E665691753",
"y  c #28D565B9174A",
"u  c #26E46AEA17F2",
"i  c #21246CC317F2",
"p  c #26F67CF21A3D",
"a  c #3F3870C91A41",
"s  c #2AAE459F2B45",
"d  c #2F084BA82F08",
"f  c #2229528E2211",
"g  c #231559D32315",
"h  c #22BC5B5222BC",
"j  c #2AAE53032B45",
"k  c #30214CC73021",
"l  c #337C4C50346C",
"z  c #2E53604B2E53",
"x  c #265674C82656",
"c  c #39F67922213F",
"v  c #2FF86AEE2FF8",
"b  c #30A16BFB30A1",
"n  c #38F7622238F7",
"m  c #3D01623F3D01",
"M  c #3D0D65353D0D",
"N  c #2C227DBD3106",
"B  c #399275EA398D",
"V  c #480348030000",
"C  c #4D8F4D050000",
"Z  c #4F904F900000",
"A  c #4C024C150C02",
"S  c #5E8D5E8D0000",
"D  c #5F595F590000",
"F  c #603260320000",
"G  c #6AD66AD60000",
"H  c #6C1A6C1A0000",
"J  c #6E476E470000",
"K  c #71256E070000",
"L  c #7C0D7C0D0000",
"P  c #5F525F5232FE",
"I  c #475D742121AB",
"U  c #42015E494201",
"Y  c #51784F8E5178",
"T  c #53DC517553DC",
"R  c #559452D55594",
"E  c #554C516557C7",
"W  c #56E1552C56E1",
"Q  c #524852485B79",
"!  c #540F5E8E5879",
"~  c #59765B5C5976",
"^  c #536D653E536D",
"/  c #54E260755476",
"(  c #570263D55702",
")  c #576A65BE576A",
"_  c #56FF66EF56FF",
"`  c #592D6590592D",
"'  c #59DB66985A65",
"]  c #5D7367175D73",
"[  c #5E4869BA5E48",
"{  c #5EE869D15EE8",
"}  c #579B732E579B",
"|  c #573074535853",
" . c #632862514F6F",
".. c #6CDA747B4F5B",
"X. c #7B7D7E034C48",
"o. c #5F7E74C6603D",
"O. c #128285E81635",
"+. c #12DA881012DA",
"@. c #21A2870121A2",
"#. c #2E008BE72E00",
"$. c #2F258A8F2F25",
"%. c #293491AD2934",
"&. c #36E79F0E36E7",
"*. c #386F93023A53",
"=. c #3F39A0823F39",
"-. c #3D7DA4AB3D7D",
";. c #594B84A33371",
":. c #41699C3E4169",
">. c #4A4F9ACB4A4F",
",. c #59B08D375E0B",
"<. c #4173A5314173",
"1. c #596AA0C359A7",
"2. c #5AF6A1B35AF6",
"3. c #6357915767B1",
"4. c #79E582FB732F",
"5. c #6445A4736445",
"6. c #64ABA56265CF",
"7. c #6EB5A8BB6EB5",
"8. c #6F1DA8EB6F1D",
"9. c #6E70ADEE6E70",
"0. c #708FA70C708F",
"q. c #83BB882502B0",
"w. c #821F8D900220",
"e. c #8C358C350000",
"r. c #8DC18DC10000",
"t. c #8EB18EB10000",
"y. c #8F658F4601A2",
"u. c #85B5903D0461",
"i. c #8982934807F6",
"p. c #8B0B943F080A",
"a. c #8FA891320D45",
"s. c #92D192D10000",
"d. c #940E940E0000",
"f. c #9FB29FB20AF3",
"g. c #997999790D81",
"h. c #9A1E99810D0C",
"j. c #9B429A4E0E2B",
"k. c #91F593BA106C",
"l. c #A93EA8CA0000",
"z. c #A9F7A9BF0000",
"x. c #AB7BAB3F0000",
"c. c #BE5EBE5E0787",
"v. c #BF07BE8B0799",
"b. c #E03BE0400000",
"n. c #E23EE1F80000",
"m. c #E3B5E1A40000",
"M. c #EA4CE9F20172",
"N. c #EB68EB680000",
"B. c #E9B3E9B3019E",
"V. c yellow",
"C. c #B3B5B5EF4AE5",
"Z. c #B122B78A4B60",
"A. c #B4E5B73B4B50",
"S. c #A593B432534E",
"D. c #8C2D9CE68C2D",
"F. c #951F97C98BF9",
"G. c #9A2095D18C2C",
"H. c #9A6C963D8CBD",
"J. c #91739ABE8CBD",
"K. c #91809FEF9180",
"L. c #91FA9E339764",
"P. c #A2869B7E9484",
"I. c #A0F3A396A16F",
"U. c #AA7EBAA9ABCC",
"Y. c #ACEEBBC9AF0E",
"T. c #B17BBBA4B171",
"R. c #B46EBEE2B46E",
"E. c None",
/* pixels */
"E.E.E.E.E.E.S J J G E.E.E.E.E.E.",
"E.E.E.E.E.S D E.E.V H E.E.E.E.E.",
"E.E.E.E.E.F @ E.E.E.F # E.E.E.E.",
"E.E.E.E.E.L e.s.d.t.r.Z E.E.E.E.",
"E.E.E.E.$ b.V.c.g.B.V.y.E.E.E.E.",
"I.U.T.Y...n.N.P Q f.V.k.L.R.] E.",
"P.;.6.*.r m.V.v.h.M.V.w.N 9.6 E.",
"F.c o.l . K q.i.p.u.a.A , 7.n Y ",
"H.a 4 * : X 1 3.,.w ! E f 8.M W ",
"G.I | k b ` h 5.%.+.0 7 x 2.h T ",
"J.p 5 * > < 9 0.:.-.&.=.<.$.2 R ",
"D.@.} d v ( g >.8 j o 3 s ; = % ",
"K.#.z m q U B 1.O.t i u y e - E.",
"~ ) _ { ^ [ ' 4.S.C.Z.A.X./ & E.",
"E.E.E.E.E.E.E. .j.z.l.x.C E.E.E.",
"E.E.E.E.E.E.E.E.O + + +   E.E.E."
};
