/* XPM */
static char *zone[] = {
/* columns rows colors chars-per-pixel */
"16 16 4 1",
"  c black",
". c #808080",
"X c gray100",
"o c None",
/* pixels */
"oooooooooooooooo",
".............ooo",
".XXXXXXXXXXX..oo",
".X...XX.XXXX.X.o",
".XXXXXX.XXXX.   ",
".XXX.......XXXX ",
".XXX.XXXXX.XXXX ",
".XXX.XXXXX.XXXX ",
".X.....X.....XX ",
".X.XXX.X.XXX.XX ",
".X.XXX.X.XXX.XX ",
".XXXXXXXXXXXXXX ",
".XXXXXXXXXXXXXX ",
"                ",
"oooooooooooooooo",
"oooooooooooooooo"
};
