/* XPM */
static char *alarmview__[] = {
/* columns rows colors chars-per-pixel */
"16 16 6 1",
"  c black",
". c red",
"X c blue",
"o c #808080",
"O c gray100",
"+ c None",
/* pixels */
"++++++++++++++++",
"++++++++++++++++",
"ooooooooooooooo+",
"oXXXXXXXXXXXXXXo",
"oXXXXXXXXXXXXXXo",
"oOOOOOOOOOOOOO o",
"oOOOOOO..OOOOO o",
"oOOOOOO..OOOOO o",
"oOOOOOO..OOOOO o",
"oOOOOOO..OOOOO o",
"oOOOOOOOOOOOOO o",
"oOOOOOO..OOOOO o",
"oOOOOOO..OOOOO o",
"o              o",
"+ooooooooooooooo",
"++++++++++++++++"
};
