/* XPM */
static char *attach_view[] = {
/* columns rows colors chars-per-pixel */
"16 16 102 2",
"   c #2F4A6B",
".  c gray27",
"X  c #464646",
"o  c #464747",
"O  c gray29",
"+  c #4C4C4C",
"@  c gray30",
"#  c #4E545E",
"$  c #515151",
"%  c #646464",
"&  c #656565",
"*  c #676767",
"=  c gray42",
"-  c #717171",
";  c gray45",
":  c #737678",
">  c gray47",
",  c #797979",
"<  c #2E5688",
"1  c #2C66AC",
"2  c #336EB4",
"3  c #3873B6",
"4  c #5F7387",
"5  c #4A6B91",
"6  c #5C7091",
"7  c #4C6DA3",
"8  c #4076B7",
"9  c #4A7CBA",
"0  c #4C7DBA",
"q  c #5378B6",
"w  c #547CB9",
"e  c #547CBD",
"r  c #557EBC",
"t  c #547FBC",
"y  c #557DBE",
"u  c #7F8183",
"i  c #5781BE",
"p  c #5580C0",
"a  c #5882C2",
"s  c #5884C1",
"d  c #5A86C4",
"f  c #5B86C5",
"g  c #5A88C7",
"h  c #5B8AC8",
"j  c #5C8CCA",
"k  c #5D8ECB",
"l  c #5F8ECB",
"z  c #5E90CC",
"x  c #5F90CC",
"c  c #5F91CD",
"v  c #5F92CD",
"b  c #5F93CD",
"n  c #5F93CE",
"m  c #618CC6",
"M  c #6191CB",
"N  c #6492CA",
"B  c #6192CD",
"V  c #6393CD",
"C  c #7BA1CA",
"Z  c #818181",
"A  c gray51",
"S  c #888888",
"D  c #898A8A",
"F  c #8B8B8C",
"G  c #8A8C8E",
"H  c #8D8D8D",
"J  c #898C90",
"K  c #8E8F90",
"L  c gray57",
"P  c #929292",
"I  c #979797",
"U  c #959698",
"Y  c gray62",
"T  c #A4A6AA",
"R  c #A4A6AB",
"E  c #A9A9A9",
"W  c gray68",
"Q  c #AEAEAE",
"!  c gray74",
"~  c #83A6D1",
"^  c #89AAD6",
"/  c #8BACD7",
"(  c #8BAED8",
")  c #9BC4ED",
"_  c #9CC4ED",
"`  c #C1C1C1",
"'  c gray76",
"]  c gray77",
"[  c #CECECE",
"{  c #CED3D3",
"}  c #CCD0D7",
"|  c #D9DADA",
" . c #DDDDDD",
".. c #C1DAF4",
"X. c #C2DBF4",
"o. c #DBE0E8",
"O. c #DEE5F0",
"+. c gray91",
"@. c #EBEFF6",
"#. c #F8F8F8",
"$. c gray100",
"%. c None",
/* pixels */
"%.%.%.%.%.%.%.%.%.%.%.%.%.%.%.%.",
"%.%.n n n b v x B V M l N ( / %.",
"%.n $.$.$.$.$.$.$.$.$.$.$.$.^ %.",
"%.n $._ _ _ ) ) ) ) ) ) ) $.m %.",
"%.c $._ ....X.X.X.X.X.X.) $.s %.",
"%.z $.) ) ) ) ) ) ) ) ) ) $.i %.",
"%.k $.$.$.$.$.$.$.$.$.$.$.$.r %.",
"%.j $.t 0 9 $.O.O.O.O.O.O.$.w %.",
"%.h $.8 ~ 3 $.O.@.@.@.@.O.$.q %.",
"%.g $.2 C 5 H Y D } o.F Y H 6 %.",
"%.f $.1 4 L +. .` K U |  .] L + ",
"%.d $.< : { S @ & P , & @ S ] ; ",
"%.a $.  u { #.o ! [ ' W o #.] A ",
"%.p $.E - { Z . X $ $ X . Z ] * ",
"%.y e 7 # J R Q I - > I Q T G @ ",
"%.%.%.%.%.O % = = %.%.= = % O %."
};
