<svg width="165" height="24" viewBox="0 0 165 24" fill="none" xmlns="http://www.w3.org/2000/svg"><g clip-path="url(#a)"><path d="M51.388 23.287c-1.21.239-2.186.239-3.432 0L36.484 8.677v14.61c-1.245.239-3.128.239-4.374 0V1.303c1.246-.236 2.187-.236 3.432 0l11.506 14.61V1.304c1.245-.236 3.128-.236 4.338 0v21.984h.002ZM71.503 19.634a9.562 9.562 0 0 1 0 3.653H56.466V1.303h15.037a9.562 9.562 0 0 1 0 3.653H60.839V10.3h9.587a9.562 9.562 0 0 1 0 3.653H60.84v5.683h10.664v-.002ZM91.38 1.303a9.562 9.562 0 0 1 0 3.653H84.99v18.33c-1.21.24-3.095.24-4.338 0V4.957H74.26a9.562 9.562 0 0 1 0-3.653h17.122ZM113.816 23.287c-1.246.239-3.767.239-4.979 0l-5.146-8.217-4.844 8.217c-1.242.239-3.766.239-5.011 0l7.063-11.296-6.762-10.688c1.245-.236 3.769-.236 5.012 0l4.809 7.679 4.543-7.679c1.245-.236 3.766-.236 5.011 0l-6.762 10.688 7.063 11.296h.003ZM144.558 23.287c-1.245.239-2.995.239-4.238 0l-3.162-14.17-5.08 14.17c-1.212.239-2.253.239-3.498 0l-5.081-14.17-3.128 14.17c-1.245.239-3.029.239-4.274 0l5.152-21.984a9.579 9.579 0 0 1 3.666 0l5.415 15.119 5.415-15.119a9.579 9.579 0 0 1 3.666 0l5.147 21.984ZM161.241 2.622c.235.641.337 3.789 0 4.194-2.256-1.488-4.238-2.368-6.088-2.368-2.052 0-3.297 1.083-3.297 2.638 0 1.724 1.38 2.265 4.542 3.248 2.927.913 6.323 2.298 6.323 6.729 0 4.43-3.465 6.73-7.836 6.73-2.355 0-4.912-.711-6.66-1.827-.235-.608-.304-3.823 0-4.228 2.322 1.521 4.509 2.401 6.491 2.401 2.322 0 3.565-1.15 3.565-2.74 0-1.827-1.378-2.332-4.608-3.348-2.96-.98-6.224-2.468-6.224-6.527 0-3.617 2.723-6.73 7.668-6.73 2.557 0 4.608.812 6.122 1.828h.002Z" fill="#fff"/><path d="M23.78 16.509 8.001 2.224C6.961 1.282 5.575.874 4.241 1.005 1.87 1.187 0 3.178 0 5.61v13.457c0 2.555 2.06 4.625 4.6 4.625 2.542 0 4.601-2.07 4.601-4.625v-4l8.059 7.296c1.804 1.632 4.725 1.645 6.524.029 1.802-1.617 1.8-4.252-.005-5.883ZM12.998 4.694l8.053 7.29c.53.479 1.238.69 1.919.623a2.353 2.353 0 0 0 2.164-2.35V3.389a2.354 2.354 0 0 0-2.348-2.36 2.354 2.354 0 0 0-2.347 2.36v2.04l-4.114-3.72c-.92-.835-2.411-.84-3.33-.016-.918.826-.918 2.17.003 3.001Z" fill="#FD2905"/></g><defs><clipPath id="a"><path fill="#fff" transform="translate(0 .795)" d="M0 0h165v23H0z"/></clipPath></defs></svg>