<svg width="120" height="121" viewBox="0 0 120 121" fill="none" xmlns="http://www.w3.org/2000/svg"><path fill-rule="evenodd" clip-rule="evenodd" d="M33.02 18.924c10.369.492 19.843 4.88 26.806 12.618 7.632 8.483 13.638 19.058 11.86 30.354-1.911 12.132-10.02 22.607-21.037 27.922-11.001 5.308-24.557 5.7-34.782-.994C6.682 82.812 6.79 70.344 4.453 59.58 2.163 49.034-3.35 37.66 2.846 28.843c6.422-9.14 19.052-10.445 30.174-9.919Z" fill="url(#a)"/><path fill-rule="evenodd" clip-rule="evenodd" d="M33.02 18.924c10.369.492 19.843 4.88 26.806 12.618 7.632 8.483 13.638 19.058 11.86 30.354-1.911 12.132-10.02 22.607-21.037 27.922-11.001 5.308-24.557 5.7-34.782-.994C6.682 82.812 6.79 70.344 4.453 59.58 2.163 49.034-3.35 37.66 2.846 28.843c6.422-9.14 19.052-10.445 30.174-9.919Z" fill="url(#b)" fill-opacity=".5"/><path d="M43.527 27.559c-1.784 2.515.126 6.038 2.951 7.04 1.88 13.646 12.564 18.45 20.822 13.573 4.306-2.543 5.583-8.471 6.366-12.99 4.176-.624 4.521-6.556 1.974-8.14 2.104-7.462-1.421-14.675-7.588-16.945-3.856-1.414-8.748-.325-11.737 2.534-5.492-1.532-12.204 3.493-10.803 13.639a3.188 3.188 0 0 0-1.985 1.289ZM51.8 42.633c-2.129-3.059-3.175-7.135-3.297-12.789.004-.012.01-.024.013-.036.642.423 1.576.724 2.934.582 1.662-.175 2.713-1.335 6.493-4.36 1.508 4.275 5.504 4.264 8.272.762.177-.222.348-.448.559-.635.18-.158.373-.214.377-.232.234.216 1.44 4.341 3.664 4.998.19.057.371.093.552.128.01.08.043.15.07.226-.221 3.214-.572 6.576-1.867 9.61-1.395 3.27-3.868 5.697-6.614 6.495-4.286 1.247-8.858-1.443-11.156-4.749Zm-1.347-26.332c1.613-1.455 3.975-1.954 5.735-1.216.465.192 1.005.069 1.342-.309 2.256-2.55 6.522-3.631 9.705-2.458 6.207 2.284 8.372 10.235 5.199 16.44-.275.05-.56.013-.947-.102-.007-.003-.67-.248-1.758-2.758-.383-.979-.632-1.546-1.317-1.974-1.085-.675-2.39-.259-3.2.457-.68.597-.866 1.05-1.336 1.508-.752.733-1.814 1.319-2.493.995-.453-.218-.939-.878-1.208-1.64-.53-1.507-2.393-2.042-3.652-1.049-4.044 3.168-4.6 3.765-5.321 3.841-.793.087-1.33-.049-1.598-.392-.58-.747-1.472-2.372-1.734-3.16-.036-.106-.101-.192-.162-.28-.16-3.8 1.066-6.389 2.745-7.903ZM30.934 72.71c-.34.868.13 1.996 1.404 2.161l1.023 2.174c6.387.52 14.028.827 21.88.991l-2.816 5.437-11.305 1.42a1.18 1.18 0 0 0-.97.787 1.18 1.18 0 0 0 .275 1.217l8.004 8.111-2.144 11.193c-.183.954.806 1.714 1.692 1.28l10.186-5.108c10.323 5.626 9.985 5.644 10.552 5.644.344 0 .688-.147.929-.454.333-.245.648-.554.939-.861.832-.882 1.538-1.475 1.401-2.569l-.95-7.6c1.838-1.859 3.764-3.749 5.732-5.347a2.411 2.411 0 0 0 .889-2.22c-.105-.728-.535-1.818-.813-2.387a1.157 1.157 0 0 0-.97-1.013l-8.095-1.336a190.631 190.631 0 0 1-2.997-6.056c4.278.018 8.514.073 16.353 0 1.634-.012 3.965-1.23 4.674-2.736.064-.054.147-.081.202-.147.343-.412.478-.951.37-1.475-1.104-5.346-2.907-9.955-8.129-15.074-4.864-4.771-13.63-8.153-21.713-6.788-11.15 1.929-20.653 9.056-25.603 20.756Zm35.17 21.38a1.185 1.185 0 0 0-.36 1.04l1.443 9.512c-8.73-4.75-8.704-5.075-9.527-4.664l-8.6 4.313 1.81-9.45a1.18 1.18 0 0 0-.321-1.051l-6.757-6.848 9.545-1.198a1.18 1.18 0 0 0 .903-.63l4.424-8.543 4.09 8.707c.165.353.493.603.877.666l9.492 1.566-7.018 6.58Zm1.746-38.766c-.744 4.633-8.694 5.17-12.268 3.37-1.467-.738-2.527-2.02-2.815-3.358 5.522-1.745 9.765-1.846 15.083-.012Zm-17.327.802c.516 1.935 1.972 3.662 3.994 4.681 3.26 1.64 8.869 1.597 12.062-.2 1.79-1.007 3.08-2.65 3.527-4.424 2.578 1.13 4.756 2.55 6.489 4.247 4.58 4.494 6.262 8.414 7.314 13.152-7.349.374-14.664.45-21.455.414-1.097-.835-2.306-1.166-3.265-1.169a1.184 1.184 0 0 0-1.524.528l-.304.586c-8.719-.14-17.431-.531-23.814-1.3 3.64-8.008 9.79-13.76 16.976-16.515ZM93.483 88.385c-.497-.366-1.056-.638-1.638-.867-.55-.698-1.604-.53-1.974.184l-3.332 6.434-7.19.904c-.967.12-1.384 1.304-.694 2.005l5.09 5.156-1.364 7.117c-.184.958.814 1.716 1.692 1.28l6.478-3.248c6.65 3.603 6.371 3.642 6.918 3.642.467 0 .912-.272 1.1-.761.108-.09.217-.176.325-.274a2.221 2.221 0 0 0 .715-1.915l-.622-4.977c1.203-1.216 2.464-2.454 3.753-3.5.436-.355.661-.898.581-1.454-.047-.329-.163-1.098-.167-1.114.22-.711-.246-1.4-.932-1.515l-5.599-.924c-2.864-5.586-2.56-5.744-3.14-6.173Zm1.997 12.784a1.183 1.183 0 0 0-.36 1.039l.82 5.41-4.792-2.64c-.801-.439-1.078.013-5.992 2.43l1.03-5.374a1.183 1.183 0 0 0-.321-1.053l-3.843-3.892 5.43-.683c.385-.049.723-.283.902-.63l2.516-4.858 2.326 4.952c.165.353.493.602.878.666l5.397.89-3.991 3.743ZM27.42 88.663l-3.316 6.404-7.155.9c-.968.12-1.385 1.305-.695 2.003l5.066 5.134-1.357 7.085c-.183.955.81 1.717 1.692 1.28l6.447-3.233c6.624 3.588 6.343 3.626 6.889 3.626.47 0 .915-.274 1.101-.769.106-.088.212-.172.318-.268.531-.483.8-1.194.712-1.907l-.62-4.955c1.199-1.211 2.454-2.443 3.737-3.486 1.004-.816.42-1.937.415-2.55a1.175 1.175 0 0 0-.93-1.52l-5.579-.921c-2.854-5.57-2.544-5.713-3.123-6.14-.492-.364-1.047-.633-1.623-.86-.5-.645-1.548-.653-1.978.177Zm5.587 13.407a1.186 1.186 0 0 0-.36 1.04l.815 5.377c-4.7-2.533-4.77-2.769-5.334-2.769-.504 0-.361.088-5.39 2.561l1.022-5.341a1.18 1.18 0 0 0-.32-1.052l-3.82-3.871 5.395-.678c.387-.049.725-.283.904-.63l2.5-4.828 2.312 4.922c.166.352.494.601.878.664l5.365.886-3.967 3.719Z" fill="#1B1E21"/><defs><radialGradient id="b" cx="0" cy="0" r="1" gradientUnits="userSpaceOnUse" gradientTransform="matrix(-36.2413 -55.10083 48.12565 -31.65354 60.757 72.282)"><stop stop-color="#FFEF5C"/><stop offset=".333" stop-color="#FFCD6B"/><stop offset=".667" stop-color="#FF8E54"/><stop offset="1" stop-color="#F82417"/></radialGradient><linearGradient id="a" x1="36" y1="18.824" x2="36" y2="93.824" gradientUnits="userSpaceOnUse"><stop stop-color="#FFEF5C"/><stop offset=".333" stop-color="#FFCD6B"/><stop offset=".667" stop-color="#FF8E54"/><stop offset="1" stop-color="#F82417"/></linearGradient></defs></svg>