<svg xmlns="http://www.w3.org/2000/svg" width="121" height="120" fill="none"><g clip-path="url(#a)"><path fill="url(#b)" fill-rule="evenodd" d="M17.179 99.11C6.743 85.468 3.793 66.433 14.927 50.883c11.854-16.554 33.2-25.82 51.445-20.473 16.305 4.778 18.722 23.735 17.971 40.815-.73 16.6-5.236 35.343-21.62 42.145-17.483 7.26-35.247-.796-45.544-14.258Z" clip-rule="evenodd"/><path fill="url(#c)" fill-opacity=".5" fill-rule="evenodd" d="M17.179 99.11C6.743 85.468 3.793 66.433 14.927 50.883c11.854-16.554 33.2-25.82 51.445-20.473 16.305 4.778 18.722 23.735 17.971 40.815-.73 16.6-5.236 35.343-21.62 42.145-17.483 7.26-35.247-.796-45.544-14.258Z" clip-rule="evenodd"/><g fill="#000" clip-path="url(#d)"><path d="M52.197 60.043a12.413 12.413 0 0 1 8.851 6.668 1.179 1.179 0 0 0-.399 1.862c.475.53.895 1.732 1.423 2.544 1.402 2.154 1.693 3.518 2.793 3.561l6.975.325c1.369 0 2.156-.92 2.856-1.45.324-.25.108-.066 3.386-5.294.237-.39.248-.877 0-1.267-.615-1.006-1.531-2.793-2.113-3.82-.485-.856-1.165-1.82-1.596-2.61-.377-.682-1.261-.8-1.822-.335 0 0-.021.01-.021.021-2.588-3.355.086-8.757-.022-13.163-.15-6.354-5.66-12.167-12.527-13.25-4.743-.736-9.616.65-13.012 3.735-3.59 3.258-5.293 8.303-4.355 12.87.991 4.807 4.916 8.748 9.562 9.592l.021.01Zm23.47 7.566-2.577 4.157c-.485.39-.938.823-1.175.823l-6.35-.293c-.15-.227-.302-.508-.452-.768 2.274-.325 4.517-1.083 6.5-2.252a1.216 1.216 0 0 0 .431-1.656 1.205 1.205 0 0 0-1.649-.433c-3.45 2.024-5.897 1.808-6.511 2.198-.097-.184-.205-.368-.291-.563-.065-.141-.14-.282-.205-.433a37.833 37.833 0 0 0 9.648-5.434c1.208 1.862 1.38 2.424 2.641 4.633l-.01.021Zm-27.07-28.231c2.867-2.598 6.986-3.767 11.028-3.14 5.66.888 10.371 5.792 10.49 10.923.108 4.178-2.879 10.132.506 14.56a35.058 35.058 0 0 1-7.341 4.08c-2.027-4.221-5.994-7.296-10.651-8.15-3.698-.672-6.846-3.844-7.633-7.697-.765-3.746.647-7.902 3.611-10.587l-.01.01ZM39.833 49.791c0-.66-.539-1.201-1.207-1.201-1.283.043-2.62-.109-3.892-.358a1.2 1.2 0 0 0-1.401.964 1.2 1.2 0 0 0 .959 1.407c1.39.26 2.814.39 4.237.39.84 0 1.304-.585 1.304-1.213v.011ZM39.553 40.926c1.089 0 1.617-1.342.82-2.09l-2.814-2.619a1.205 1.205 0 0 0-1.703.065 1.216 1.216 0 0 0 .064 1.71c2.738 2.414 2.825 2.945 3.633 2.945v-.011ZM48.337 32.948c.356.563 1.1.725 1.66.357.56-.368.712-1.115.356-1.667-.54-.844-.96-1.754-1.23-2.717a1.202 1.202 0 0 0-1.487-.823 1.208 1.208 0 0 0-.82 1.494c.346 1.19.852 2.317 1.52 3.356ZM61.719 31.768c.55 0 1.045-.379 1.175-.942l.7-3.128a1.196 1.196 0 0 0-.905-1.44 1.191 1.191 0 0 0-1.434.91l-.7 3.128a1.202 1.202 0 0 0 1.174 1.472h-.01ZM72.941 36.693c.927 0 1.132-.855 2.048-1.872.41-.52.324-1.288-.205-1.7a1.2 1.2 0 0 0-1.692.206l-1.11 1.407c-.626.801-.044 1.96.948 1.96h.011Z"/><path d="M14.53 56.773c36.114 54.461 33.764 51.235 35.058 52.242 2.393 1.851 7.622.736 10.414-.444 3.094-1.299 4.991-2.273 6.306-3.031 40.826-17.342 40.039-16.67 42.12-18.738 1.499-1.494 3.245-4.135.97-9.72-.151-.38.022.216-.851-1.516 5.174-2.263 4.571-6.387.981-10.695L72.302 20.153c-4.247-5.11-7.266-6.723-16.559-3.464-7.169 2.522-43.822 16.54-44.006 16.8-2.371 2.003-3.978 5.607-3.212 8.54-.453 5.197 3.288 10.653 6.004 14.744Zm91.785 19.724c.938 1.742.938 3.723-.905 4.46-16.171 6.516-34.132 13.358-50.755 21.368-.356-1.992.442-4.06 1.412-5.813 16.645-6.906 33.204-12.99 50.248-20.026v.01Zm-3.913 11.084c-42.81 18.1-42.465 18.489-45.182 18.316-.57-.292-1.035-.422-1.66-1.331 16.397-7.913 34.045-14.646 50.744-21.369a4.927 4.927 0 0 0 1.779-1.201c-.054 3.096-2.824 4.373-5.681 5.585Zm-45.86-68.608c8.43-2.956 10.392-1.494 13.917 2.728l37.236 44.717c2.016 2.425 2.663 4.276 1.919 5.5-.453.746-1.434 1.201-2.566 1.667-17.022 7.08-34.207 13.369-51.423 20.502-13.433-19.571-27.695-39.912-41.03-59.32C28.716 29.742 42.385 23.94 56.54 18.972Zm-43.985 17.07c13.928 20.276 27.587 39.75 41.246 59.635-1.11 2.1-1.854 4.33-1.563 6.669-30.477-42.748-34.455-47.858-41.16-60.295-.852-1.58-.119-4.211 1.466-6.008h.01Z"/></g></g><defs><clipPath id="a"><path fill="#fff" d="M.332 0h120v120h-120z"/></clipPath><clipPath id="d"><path fill="#fff" d="M8.332 15h104v95h-104z"/></clipPath><radialGradient id="c" cx="0" cy="0" r="1" gradientTransform="rotate(109.364 10.001 36.447) scale(74.8546 65.5097)" gradientUnits="userSpaceOnUse"><stop stop-color="#FFEF5C"/><stop offset=".333" stop-color="#FFCD6B"/><stop offset=".667" stop-color="#FF8E54"/><stop offset="1" stop-color="#F82417"/></radialGradient><linearGradient id="b" x1="67.156" x2="16.672" y1="93.861" y2="55.057" gradientUnits="userSpaceOnUse"><stop stop-color="#FFEF5C"/><stop offset=".333" stop-color="#FFCD6B"/><stop offset=".667" stop-color="#FF8E54"/><stop offset="1" stop-color="#F82417"/></linearGradient></defs></svg>