/* XPM */
static char *config[] = {
/* columns rows colors chars-per-pixel */
"32 32 244 2",
"   c #070707",
".  c #131710",
"X  c #231D12",
"o  c #2F2616",
"O  c #2A2A17",
"+  c #3A3017",
"@  c #3F361D",
"#  c #343526",
"$  c #582807",
"%  c #423F29",
"&  c #4C482F",
"*  c #524E2B",
"=  c #514E2E",
"-  c #464936",
";  c #4D4932",
":  c #6C4F2C",
">  c #635021",
",  c #66562F",
"<  c #6B5A29",
"1  c #7C5023",
"2  c #77572F",
"3  c #705D3A",
"4  c #6D633E",
"5  c #6E705F",
"6  c #74777C",
"7  c #777A7F",
"8  c #874007",
"9  c #894207",
"0  c #924807",
"q  c #944907",
"w  c #9C4F07",
"e  c #864612",
"r  c #8D4617",
"t  c #9C5B18",
"y  c #AA5507",
"u  c #AD5507",
"i  c #AF5907",
"p  c #A9560E",
"a  c #B15A07",
"s  c #BF5E07",
"d  c #AC600D",
"f  c #BE6007",
"g  c #BF6507",
"h  c #895928",
"j  c #8C5A2B",
"k  c #8C5E29",
"l  c #9F612E",
"z  c #9C702F",
"x  c #8A663B",
"c  c #AA6923",
"v  c #A56029",
"b  c #A96934",
"n  c #B47233",
"m  c #B67E34",
"M  c #C16107",
"N  c #C86A07",
"B  c #CD6D23",
"V  c #C26D29",
"C  c #EB7720",
"Z  c #E9722C",
"A  c #F67F2C",
"S  c #846441",
"D  c #EE8707",
"F  c #EA8208",
"G  c #EE8408",
"H  c #FF8507",
"J  c #FF8B07",
"K  c #FF8C07",
"L  c #F28608",
"P  c #F3850D",
"I  c #FD8C08",
"U  c #FF9207",
"Y  c #FF9807",
"T  c #FF9F07",
"R  c #F99108",
"E  c #FF9308",
"W  c #FF9409",
"Q  c #FF9908",
"!  c #FF8815",
"~  c #FF9817",
"^  c #E4832F",
"/  c #E8832C",
"(  c #FF9F29",
")  c #FFA320",
"_  c #FFA329",
"`  c #FFA92C",
"'  c #FFB32D",
"]  c #FFAD32",
"[  c #FFAF36",
"{  c #FFAD3F",
"}  c #918E77",
"|  c #BD9E6C",
" . c #C09148",
".. c #CE8C5B",
"X. c #CE915A",
"o. c #D8905E",
"O. c #E5894E",
"+. c #EA9548",
"@. c #E8A357",
"#. c #EFA851",
"$. c #F0A951",
"%. c #C88E63",
"&. c #D39162",
"*. c #E2A370",
"=. c #E1A671",
"-. c #F1AE7B",
";. c #FFC57C",
":. c #FCCA7E",
">. c #FFCD7E",
",. c #787B80",
"<. c #7C8087",
"1. c #7A8BA7",
"2. c #84888F",
"3. c #818998",
"4. c #8C929E",
"5. c #8992A1",
"6. c #969BA6",
"7. c #8999B3",
"8. c #8E9FBB",
"9. c #93A0B7",
"0. c #95A0B4",
"q. c #97A4BB",
"w. c #9CA8BE",
"e. c #A3A7AD",
"r. c #A6A9AF",
"t. c #A7ABB2",
"y. c #A8ABB1",
"u. c #A9ACB2",
"i. c #ABAFB5",
"p. c #ACAFB5",
"a. c #A4ADBE",
"s. c #AEB1B6",
"d. c #AFB2B8",
"f. c #B1B1B1",
"g. c #B6B7B8",
"h. c gray72",
"j. c #E9A882",
"k. c #ECAD81",
"l. c #FFB783",
"z. c #F0B289",
"x. c #F5BC89",
"c. c #FCBA8A",
"v. c #F6BB95",
"b. c #F8BFA1",
"n. c #FFC382",
"m. c #FFC199",
"M. c #FFC39D",
"N. c #FFC6A6",
"B. c #FFCFAE",
"V. c #FFDBAB",
"C. c #FFDEB8",
"Z. c #FFE0A9",
"A. c #FFE0BA",
"S. c #98A8C1",
"D. c #9FABC0",
"F. c #A2ADC0",
"G. c #A4AFC1",
"H. c #ADB7C8",
"J. c #A4B4D1",
"K. c #ABBBD6",
"L. c #B4C1D7",
"P. c #B3C1DB",
"I. c #B5C2D9",
"U. c #B7C4DA",
"Y. c #BAC6DB",
"T. c #BCC7DB",
"R. c #BAC6DD",
"E. c #BECADE",
"W. c #BECBE2",
"Q. c #C5CBD3",
"!. c #C7CBD4",
"~. c #C8CCD5",
"^. c #CBD0D6",
"/. c #CCD1D7",
"(. c #CBD0DA",
"). c #CCD1D8",
"_. c #D0D4DB",
"`. c #D4D6D9",
"'. c #DADADA",
"]. c #F5D0C0",
"[. c #FFD8C2",
"{. c #FFDFC6",
"}. c #F9D8D1",
"|. c #FFDFD7",
" X c #FCDCD9",
".X c #FFE6CB",
"XX c #FFEAD2",
"oX c #C2CDE0",
"OX c #C4CFE1",
"+X c #C6D0E3",
"@X c #C5D1E7",
"#X c #C9D3E5",
"$X c #CBD5E6",
"%X c #CDD6E6",
"&X c #CAD5E9",
"*X c #CED7E8",
"=X c #CFD8E9",
"-X c #CFD9EC",
";X c #D1DAE9",
":X c #D3DCEA",
">X c #D4DCEB",
",X c #D1DBEE",
"<X c #D2DDEF",
"1X c #D6DEED",
"2X c #D8DFED",
"3X c #D5DFF1",
"4X c #DAE1EB",
"5X c #D9E1EE",
"6X c #D6E0F2",
"7X c #DBE3F0",
"8X c #DCE3F0",
"9X c #DEE5F1",
"0X c #E2E8EF",
"qX c #FFEDE2",
"wX c #FFEFE5",
"eX c #FFF0EA",
"rX c #FFF8EA",
"tX c #E0E7F3",
"yX c #E1E7F4",
"uX c #E2E8F3",
"iX c #E7EBF3",
"pX c #E3E9F4",
"aX c #E5EAF5",
"sX c #E6ECF7",
"dX c #E9EBF1",
"fX c #E9EEF6",
"gX c #E1EAF9",
"hX c #E9EFF8",
"jX c #EBF0F9",
"kX c #EEF2FB",
"lX c #EAF3FF",
"zX c #EEF3FC",
"xX c #EFF4FC",
"cX c #F1F1F1",
"vX c #F5F7FA",
"bX c #F2F6FE",
"nX c #F4F7FE",
"mX c #F6F9FF",
"MX c #FBFBFB",
"NX c #FFFBFA",
"BX c #F9FBFE",
"VX c #FAFDFF",
"CX c #FFFFFF",
"ZX c None",
/* pixels */
"ZXZXZXZXZXZXZXY.Y.Y.Y.Y.Y.Y.Y.Y.Y.Y.Y.Y.Y.Y.9.ZXZXZXZXZXZXZXZXZX",
"ZXZXZXZXZXZXZXY.bXCXCXCXCXCXCXCXVXnXjXpX5X*XR.F.ZXZXZXZXZXZXZXZX",
"rX;.#.z ZXZXZXY.bXCXCXCXCXCXCXVXmXzXfXtX1X$XI.gXw.ZXZXZXZXZXZXZX",
"' qX;.#.z ZXZXY.bXCXCXCXCXCXCXVXmXbXjXpX8X=XY.sX<Xw.ZXZXZXZXZXZX",
"U ' qX;.$.z ZXY.bXCXCXCXCXCXCXCXBXmXkXsX9X;XY.mX9X,Xw.ZXZXZXZXZX",
"U U [ qX;.$.z Y.bXCXCXCXCXCXCXCXVXmXbXhXtX1XT.CXnXuX3XD.ZXZXZXZX",
"U U H ] qX;.#.z bXCXCXCXCXCXCXCXVXmXbXhXpX5XL.dX0X5X%X@Xq.ZXZXZX",
"T U U K ` qX;.#.z CXCXCXCXCXCXCXCXmXbXkXsX9XE.8.8.8.7.S.8.8.ZXZX",
"I Y E U J { qX;.#.z CXCXCXCXCXCXVXBXnXkXsXyX7X1X%XU.0.OXJ.1.ZXZX",
"N L Q W U J _ V.;.#.m CXCXCXCXCXCXVXmXzXhXpX7X1XoXI.H.+XK.1.ZXZX",
"i N L Q W U H ( Z.;.#.c CXCXCXCXCXVXmXbXhXaX8X$XE.T.Y.U.P.1.ZXZX",
"9 a g L W W U J ) >.n.#. .CXCXCXCXVXmXnXjX9X;X+XoXE.a.$XR.1.ZXZX",
"$ 9 y f F Q E E J ~ l.x.:.@.CXCXCXVXnXjXtX:X%X#X+XOX4.fXW.1.ZXZX",
"ZX$ 0 u f L Q W U J +.].CXXXm.VXmXbXhX9X1X;X;X%X$X#X).fX@X1.ZXZX",
"ZXZX$ q y f G Y W R ^ b.eXCXC. XmXhX9X5X1X1X:X;X=X*X$X#X&X1.ZXZX",
"ZXZXZX$ 8 y M D ! P / c.B.NXCXm.sXtX9X8X7X5X1X>X:X;X6.iX&X1.ZXZX",
"ZXZXZXZX$ w i s C A Z O.v..XCXC. XpXpXtX8X5X5X1X>X:X<.MX-X1.ZXZX",
"ZXZXZXZXZX$ e p d V B %.*.N.{.CXm.aXaXuX9X8X5X5X5X1XcXVX,X1.ZXZX",
"ZXZXZXZXZXZX$ r < 1 t n ..k.[.rXA.}.aXpXtX9X8X5X5X5X1X1X<X1.ZXZX",
"ZXZXZXZXZXZXZX$ - , > k b &.j.[.CXm.sXaXpXtX9X8X5X2X2.vX3X1.ZXZX",
"ZXZXZXZXZXZXZX3.u.; = , h v ..-.|.A.sXsXaXtX9X8X5X5X7 CX3X1.ZXZX",
"ZXZXZXZXZXZXZX3.y.f.  O 3 j l o.z.wXM.sXpXuX9X8X8X5XCXVX3X1.ZXZX",
"ZXZXZXZXZXZXZX3.y.f.f.u.  & : x X.=.| } aXpX9X9X8X5X1X5X3X1.ZXZX",
"ZXZXZXZXZXZXZX3.y.f.f.u.r.r.. @ S 2 + 5 aXuX9X8X8X5X,.BX3X1.ZXZX",
"ZXZXZXZXZXZXZX3.y.f.f.u.r.r.r.e.  o X * 4 tXtX8X8X5X6 CX3X1.ZXZX",
"ZXZXZXZXZXZXZX5.d.h.g.s.s.p.i.u.u.t.  % # 4X9X8X8X5XCXVX3X1.ZXZX",
"ZXZXZXZXZXZXZXG._.'.`.^./.).).~.!.Q.Q.Q.(.4X9X8X5X5X5X1X6X1.ZXZX",
"ZXZXZXZXZXZXZXY.kXMXvXjXjXfXfXaXaXaXpXuX9X9X9X8X5X5X5X1X6X1.ZXZX",
"ZXZXZXZXZXZXZXY.lXCXBXxXxXkXkXhXhXhXsXsXpXtX9X8X5X5X5X1X6X1.ZXZX",
"ZXZXZXZXZXZXZXY.1.1.1.1.1.1.1.1.1.1.1.1.1.1.1.1.1.1.1.1.1.1.ZXZX",
"ZXZXZXZXZXZXZXZXZXZXZXZXZXZXZXZXZXZXZXZXZXZXZXZXZXZXZXZXZXZXZXZX",
"ZXZXZXZXZXZXZXZXZXZXZXZXZXZXZXZXZXZXZXZXZXZXZXZXZXZXZXZXZXZXZXZX"
};
