/* XPM */
static char *epp__[] = {
/* columns rows colors chars-per-pixel */
"32 32 10 1",
"  c #060606",
". c #808000",
"X c yellow",
"o c navy",
"O c #800080",
"+ c magenta",
"@ c gray52",
"# c #C5C5C5",
"$ c gray100",
"% c None",
/* pixels */
"%%%%%%%%%%%%%%%%%%%%%%%%%%%%%%%%",
"@@@@@@@@@@@@@@@@@@@@@@@@@@@@@@@ ",
"@#############################@ ",
"@#oooooooooooooooooooooooooooo@ ",
"@#ooooooooooooooooooooooooo##o@ ",
"@#ooooooooooooooooooooooooo##o@ ",
"@                             @ ",
"@ $$$$$$$$$$$$$$$$$$$$$$$$$$$$@ ",
"@ $$$$$$$$$$$$$$$$$$$$$$$$$$$$@ ",
"@ $$$$$$$$$$$$$$$$$$$$$$$$$$$$@ ",
"@ $$$$$$$$$$$$$$$$$$$$$$$$$$$$@ ",
"@ $$$$$#################@$$$$$@ ",
"@ $$$$$#################@$$$$$@ ",
"@ $$$$$########### #####@$$$$$@ ",
"@ $$$$$##X.#@@@@@#  ####@$$$$$@ ",
"@ $$$$$##..####### $ ###@$$$$$@ ",
"@ $$$$$########### $$ ##@$$$$$@ ",
"@ $$$$$##+O#@@@@@# $$$ #@$$$$$@ ",
"@ $$$$$##OO####### $$$$ @$$$$$@ ",
"@ $$$$$########### $$$   $$$$$@ ",
"@ $$$$$##+O#@@@@@# $ $ #@$$$$$@ ",
"@ $$$$$##OO#######   $ #@$$$$$@ ",
"@ $$$$$########### ## $ @$$$$$@ ",
"@ $$$$$############## $ @$$$$$@ ",
"@ $$$$$@@@@@@@@@@@@@@@ $ $$$$$@ ",
"@ $$$$$$$$$$$$$$$$$$$$   $$$$$@ ",
"@ $$$$$$$$$$$$$$$$$$$$$$$$$$$$@ ",
"@ $$$$$$$$$$$$$$$$$$$$$$$$$$$$@ ",
"@ $$$$$$$$$$$$$$$$$$$$$$$$$$$$@ ",
"@@@@@@@@@@@@@@@@@@@@@@@@@@@@@@@ ",
"                                ",
"%%%%%%%%%%%%%%%%%%%%%%%%%%%%%%%%"
};
