/* XPM */
static char *lastval[] = {
/* columns rows colors chars-per-pixel */
"16 16 5 1",
"  c black",
". c #808080",
"X c #C0C0C0",
"o c gray100",
"O c None",
/* pixels */
"OO.........OOOOO",
"OO.ooooooo  OOOO",
"OO.o.....o X OOO",
"OO.ooooooo    OO",
"OO.o.....oooo OO",
"OO.oooooooooo OO",
"OO.o........o OO",
"OO.oooooooooo OO",
"OO.o........o OO",
"OO.oooooooooo OO",
"OO.o........o OO",
"OO.oooooooooo OO",
"OO.o........o OO",
"OO.oooooooooo OO",
"OO.           OO",
"OOOOOOOOOOOOOOOO"
};
