/* XPM */
static char *unsupported[] = {
/* columns rows colors chars-per-pixel */
"16 16 11 1",
"  c #B20000",
". c #BB0000",
"X c #C50000",
"o c #CE0000",
"O c #D80000",
"+ c #E20000",
"@ c #EB0000",
"# c #F50000",
"$ c red",
"% c #E6E6E6",
"& c None",
/* pixels */
"&&&&&&&&&&&&&&&&",
"&&&&&&&&&&&&&&&&",
"&&&%%%%%%%%%%&&&",
"&&%$$$$$$$$$$%&&",
"&&%##########%&&",
"&&%@@@@@@@@@@%&&",
"&&%++++++++++%&&",
"&&%OOOOOOOOOO%&&",
"&&%oooooooooo%&&",
"&&%XXXXXXXXXX%&&",
"&&%..........%&&",
"&&%          %&&",
"&&&%%%%%%%%%%&&&",
"&&&&&&&&&&&&&&&&",
"&&&&&&&&&&&&&&&&",
"&&&&&&&&&&&&&&&&"
};
